<svg xmlns="http://www.w3.org/2000/svg" viewBox="0 0 462.8 381.65">
<defs>
<style>.cls-1{fill:#fff;}.cls-2{fill:#fff;}</style>
</defs>
<title>Recurso 1</title>
<g id="Capa_2" data-name="Capa 2"><g id="Capa_1-2" data-name="Capa 1"><path class="cls-1" d="M399.07,0C342,6.52,299.86,37.14,263.75,79.88c3.59,1.48,6.69,2.84,9.85,4,17.09,6.51,34.42,12.43,49.76,22.85,4.33,2.94,5.46,5.15,2.92,10.2a984.54,984.54,0,0,0-45.44,104.78c-11.07,30.26-18.79,61.39-24.24,93.07-3.42,19.82-5.94,39.79-8.81,59.7-.27,1.9-.22,3.84-.39,7.13,2.41-1.76,4-2.56,5.11-3.77,26.76-28.76,53.67-57.37,76-89.87,1.37-2,4.39-3.55,6.87-4,39.48-6.84,79.35-5.13,119.14-5.16h8.27c-1-6-1.71-11.19-2.69-16.35-4.89-25.61-12.11-50.49-24.4-73.6-13.9-26.15-35-45.42-59.8-60.93-3.57-2.24-4.91-4.46-4.58-8.75,2.75-36.36,9.43-71.84,23.07-105.81,1.37-3.39,2.67-6.8,4-10.22A28.45,28.45,0,0,0,399.07,0Z"/><path class="cls-2" d="M63.73,0c57.08,6.52,99.2,37.14,135.32,79.88-3.59,1.48-6.69,2.84-9.85,4-17.09,6.51-34.42,12.43-49.76,22.85-4.33,2.94-5.46,5.15-2.92,10.2A984.54,984.54,0,0,1,182,221.75C193,252,200.74,283.14,206.2,314.82c3.41,19.82,5.93,39.79,8.81,59.7.27,1.9.22,3.84.39,7.13-2.42-1.76-4-2.56-5.12-3.77-26.75-28.76-53.66-57.37-76-89.87-1.37-2-4.39-3.55-6.87-4-39.48-6.84-79.35-5.13-119.14-5.16H0c1-6,1.7-11.19,2.69-16.35,4.89-25.61,12.1-50.49,24.4-73.6,13.9-26.15,35-45.42,59.8-60.93,3.57-2.24,4.91-4.46,4.58-8.75C88.72,82.88,82,47.4,68.39,13.43q-2-5.09-4-10.22A28.45,28.45,0,0,1,63.73,0Z"/></g></g></svg>